<?xml version="1.0" encoding="utf-8"?>
<!-- Generator: Adobe Illustrator 25.0.1, SVG Export Plug-In . SVG Version: 6.00 Build 0)  -->
<svg version="1.1" id="레이어_1" xmlns="http://www.w3.org/2000/svg" xmlns:xlink="http://www.w3.org/1999/xlink" x="0px"
	 y="0px" viewBox="0 0 90 22" style="enable-background:new 0 0 90 22;" xml:space="preserve">
<style type="text/css">
	.st0{fill:#F7C000;}
	.st1{fill:#ED821B;}
	.st2{fill:#FFFFFF;}
	.st3{fill:#FBF6B7;}
</style>
<g>
	<path class="st0" d="M25.31,17.47c4.37-2.83,6.36-7.61,4.45-10.65c-1.9-3.05-6.99-3.23-11.35-0.39c-4.36,2.84-6.36,7.61-4.45,10.65
		C15.86,20.13,20.95,20.3,25.31,17.47z"/>
	<path class="st1" d="M22.44,5.76c-4.68,0.66-7.94,4.28-8.07,7.37c-0.05,1.21,0.34,2.24,1.3,3.05c0,0,0.77,0.71,2.21,0.98
		c0,0,0.67,0.13,1.64,0.15c0.2,0.02,0.4,0.02,0.6,0.01c3.51-0.16,6.22-3.48,6.22-6.26c0-2.5-2.59-2.75-3.43-2.71
		c-3.47,0.16-6.28,3.49-6.29,6.35c0,0.18,0.02,0.35,0.05,0.52c-0.47-0.76-0.52-1.67-0.51-2.3c0.07-3.09,3-6.25,6.21-6.64
		c3.82-0.47,5.55,2.35,5.25,5.29c-0.29,2.94-2.96,5.63-6.38,6.04c-0.23,0.03-1.37,0.12-1.51,0.13c0,0,0.77,0.22,2.3-0.01
		c3.79-0.78,6.84-3.34,7.46-6.39C30.24,7.79,26.96,5.12,22.44,5.76z M19.23,15.53c0-1.19,1.1-6.51,3.47-6.62
		c0.57-0.03,1.05,0.21,1.05,1.15c0,1.39-1.28,6.63-3.39,6.73C19.23,16.84,19.23,15.91,19.23,15.53z"/>
	<path class="st2" d="M26.48,6.72c0.86,0.26,1.66,0.15,1.79-0.24c0.13-0.4-0.46-0.92-1.32-1.18c-0.86-0.26-1.66-0.15-1.79,0.25
		C25.03,5.93,25.62,6.46,26.48,6.72z"/>
	<path class="st3" d="M14.42,16.36c0,0,1.44,3.68,6.38,2.41c3.82-0.98,5.65-2.92,5.65-2.92S20.44,19.26,14.42,16.36z"/>
</g>
<path class="st2" d="M8.74,9.2c-0.1-0.55-0.29-0.96-0.56-1.22c-0.37-0.36-1.01-0.54-1.9-0.54c-0.88,0-1.5,0.14-1.85,0.42
	C4.18,8.07,4.05,8.37,4.05,8.74c0,0.36,0.29,0.66,0.86,0.89c0.37,0.15,1.08,0.33,2.13,0.54c1.77,0.35,3.03,0.71,3.78,1.1
	c1.27,0.67,1.91,1.67,1.91,2.98c0,1.82-0.74,3.14-2.24,3.96C9.44,18.8,8.16,19.1,6.65,19.1c-1.84,0-3.33-0.34-4.47-1.01
	C0.76,17.25,0.03,15.97,0,14.23h3.75c0,0.73,0.21,1.27,0.63,1.63c0.49,0.39,1.29,0.59,2.38,0.59c0.81,0,1.42-0.17,1.83-0.51
	c0.32-0.25,0.48-0.54,0.48-0.86c0-0.46-0.31-0.83-0.94-1.11c-0.39-0.18-1.13-0.38-2.21-0.61c-1.74-0.38-2.96-0.76-3.65-1.16
	c-1.18-0.67-1.78-1.66-1.78-2.95c0-1.18,0.39-2.17,1.16-2.97c1-0.99,2.47-1.48,4.43-1.48c1.67,0,3,0.26,3.98,0.78
	c1.32,0.72,2.05,1.92,2.2,3.62H8.74z"/>
<path class="st2" d="M36.21,18.47h-3.64V7.57h-2V5.06h2V3.77c0-1.33,0.36-2.3,1.07-2.92C34.32,0.28,35.32,0,36.64,0
	c0.47,0,0.88,0,1.22,0c0.25,0.01,0.47,0.03,0.66,0.05V2.9h-1.04c-0.57,0-0.94,0.1-1.09,0.31c-0.12,0.16-0.18,0.54-0.18,1.13v0.72
	h2.38v2.51h-2.38V18.47z"/>
<path class="st2" d="M45.61,5.07h2.28v2.51h-2.28v7.46c0,0.43,0.07,0.71,0.2,0.84c0.19,0.17,0.63,0.25,1.32,0.25l0.76-0.02v2.64
	l-1.73,0.05h-0.48c-1.46,0-2.48-0.27-3.06-0.82c-0.44-0.43-0.66-1.12-0.66-2.09v-8.3h-1.88V5.07h1.88V1.34h3.64V5.07z"/>
<path class="st2" d="M62.3,18.47h-3.65v-7.81c-0.02-0.75-0.13-1.32-0.33-1.7c-0.35-0.63-1.03-0.94-2.03-0.94
	c-0.84,0-1.53,0.25-2.05,0.76c-0.54,0.56-0.81,1.34-0.81,2.34v7.34h-3.62V5.45h3.47v1.94h0.05c0.37-0.64,0.8-1.12,1.27-1.45
	c0.76-0.59,1.72-0.88,2.87-0.88c1.4,0,2.55,0.38,3.43,1.13c0.93,0.8,1.4,1.92,1.4,3.35V18.47z"/>
<path class="st2" d="M71.69,16.96c-0.47,1.21-0.85,2.09-1.11,2.63c-0.34,0.69-0.68,1.2-1.02,1.52c-0.35,0.34-0.78,0.58-1.29,0.71
	c-0.44,0.12-1.08,0.17-1.9,0.17c-0.27,0-0.55-0.01-0.84-0.02c-0.31-0.02-0.58-0.03-0.81-0.05v-2.78l0.71,0.05
	c0.71,0,1.23-0.08,1.55-0.25c0.39-0.21,0.67-0.6,0.84-1.18l-5.1-12.71h4.06l2.97,8.59h0.02l2.84-8.59h3.86L71.69,16.96z"/>
<path class="st2" d="M90,18.47h-4.49l-2.41-4.11l-2.36,4.11h-4.41l4.72-6.89L76.5,5.06h4.41l2.33,3.85l2.31-3.85h2.99l-3.24,6.52
	L90,18.47z"/>
</svg>
